<svg width="389" height="21" viewBox="0 0 389 21" fill="none" xmlns="http://www.w3.org/2000/svg">
<path d="M10.9957 6C10.8632 5.51705 10.669 5.06487 10.4134 4.64347C10.1577 4.21733 9.84044 3.84564 9.46165 3.52841C9.08759 3.20644 8.65436 2.95549 8.16193 2.77557C7.67424 2.59564 7.12974 2.50568 6.52841 2.50568C5.58144 2.50568 4.7339 2.75189 3.9858 3.24432C3.23769 3.73674 2.64583 4.44697 2.21023 5.375C1.77936 6.30303 1.56392 7.42045 1.56392 8.72727C1.56392 10.0294 1.78172 11.1444 2.21733 12.0724C2.65294 13.0005 3.24953 13.7131 4.0071 14.2102C4.76941 14.7027 5.64062 14.9489 6.62074 14.9489C7.51563 14.9489 8.30635 14.75 8.9929 14.3523C9.67945 13.9545 10.2145 13.3864 10.598 12.6477C10.9863 11.9091 11.1757 11.0308 11.1662 10.0128L11.5923 10.1477H6.93324V8.95455H12.4588V10.1477C12.4588 11.3883 12.2079 12.4607 11.706 13.3651C11.2041 14.2694 10.5152 14.9678 9.6392 15.4602C8.76326 15.9527 7.7571 16.1989 6.62074 16.1989C5.3518 16.1989 4.24148 15.8935 3.28977 15.2827C2.33807 14.6671 1.59706 13.8007 1.06676 12.6832C0.541193 11.5611 0.278409 10.2424 0.278409 8.72727C0.278409 7.58617 0.429924 6.55634 0.732955 5.63778C1.03598 4.71922 1.46449 3.93324 2.01847 3.27983C2.57718 2.62642 3.23769 2.12689 4 1.78125C4.76231 1.43087 5.60511 1.25568 6.52841 1.25568C7.32386 1.25568 8.05066 1.38115 8.70881 1.6321C9.37169 1.88305 9.95407 2.22869 10.456 2.66903C10.9626 3.10464 11.3769 3.6089 11.6989 4.18182C12.0256 4.75 12.2457 5.35606 12.3594 6H10.9957ZM16.7575 1.45455V16H15.4933V1.45455H16.7575ZM24.3427 16.2273C23.4004 16.2273 22.5671 15.9882 21.8427 15.5099C21.123 15.0317 20.5595 14.3712 20.1523 13.5284C19.7451 12.6809 19.5415 11.7031 19.5415 10.5952C19.5415 9.47775 19.7451 8.49526 20.1523 7.64773C20.5595 6.79545 21.123 6.13258 21.8427 5.65909C22.5671 5.18087 23.4004 4.94176 24.3427 4.94176C25.2849 4.94176 26.1159 5.18087 26.8356 5.65909C27.5553 6.13731 28.1187 6.80019 28.5259 7.64773C28.9379 8.49526 29.1438 9.47775 29.1438 10.5952C29.1438 11.7031 28.9402 12.6809 28.533 13.5284C28.1258 14.3712 27.56 15.0317 26.8356 15.5099C26.1159 15.9882 25.2849 16.2273 24.3427 16.2273ZM24.3427 15.0696C25.1003 15.0696 25.7418 14.866 26.2674 14.4588C26.793 14.0516 27.1907 13.5095 27.4606 12.8324C27.7352 12.1553 27.8725 11.4096 27.8725 10.5952C27.8725 9.78078 27.7352 9.03267 27.4606 8.35085C27.1907 7.66903 26.793 7.12216 26.2674 6.71023C25.7418 6.2983 25.1003 6.09233 24.3427 6.09233C23.5898 6.09233 22.9483 6.2983 22.418 6.71023C21.8924 7.12216 21.4923 7.66903 21.2177 8.35085C20.9478 9.03267 20.8129 9.78078 20.8129 10.5952C20.8129 11.4096 20.9478 12.1553 21.2177 12.8324C21.4923 13.5095 21.8924 14.0516 22.418 14.4588C22.9435 14.866 23.5851 15.0696 24.3427 15.0696ZM32.1818 16V1.45455H33.4531V7.17188H33.5668C33.7088 6.84517 33.9124 6.509 34.1776 6.16335C34.4474 5.81771 34.8002 5.52888 35.2358 5.29688C35.6761 5.06013 36.2301 4.94176 36.8977 4.94176C37.7926 4.94176 38.5786 5.1785 39.2557 5.65199C39.9328 6.12074 40.4607 6.77888 40.8395 7.62642C41.2183 8.46922 41.4077 9.4517 41.4077 10.5739C41.4077 11.7008 41.2183 12.688 40.8395 13.5355C40.4654 14.383 39.9399 15.0436 39.2628 15.517C38.5904 15.9905 37.8092 16.2273 36.919 16.2273C36.2562 16.2273 35.7022 16.1089 35.2571 15.8722C34.8168 15.6354 34.4616 15.3442 34.1918 14.9986C33.9219 14.6482 33.7135 14.3073 33.5668 13.9759H33.4105V16H32.1818ZM33.4318 10.5526C33.4318 11.4332 33.562 12.2145 33.8224 12.8963C34.0876 13.5734 34.4664 14.1061 34.9588 14.4943C35.456 14.8778 36.0573 15.0696 36.7628 15.0696C37.4872 15.0696 38.1004 14.8707 38.6023 14.473C39.1042 14.0705 39.4853 13.5284 39.7457 12.8466C40.0062 12.1648 40.1364 11.4001 40.1364 10.5526C40.1364 9.71449 40.0062 8.95928 39.7457 8.28693C39.4901 7.61458 39.1113 7.08191 38.6094 6.68892C38.1075 6.29119 37.492 6.09233 36.7628 6.09233C36.0526 6.09233 35.4489 6.28409 34.9517 6.66761C34.4593 7.0464 34.0829 7.57197 33.8224 8.24432C33.562 8.91193 33.4318 9.68134 33.4318 10.5526ZM47.2315 16.2486C46.5734 16.2486 45.9721 16.1207 45.4276 15.8651C44.883 15.6046 44.4498 15.2306 44.1278 14.7429C43.8059 14.2505 43.6449 13.6539 43.6449 12.9531C43.6449 12.4134 43.7467 11.9588 43.9503 11.5895C44.1539 11.2202 44.4427 10.9171 44.8168 10.6804C45.1908 10.4437 45.6335 10.2566 46.1449 10.1193C46.6563 9.98201 47.2197 9.87547 47.8352 9.79972C48.446 9.72396 48.9621 9.65767 49.3835 9.60085C49.8097 9.54403 50.134 9.45407 50.3565 9.33097C50.5791 9.20786 50.6903 9.009 50.6903 8.73438V8.47869C50.6903 7.73532 50.4678 7.15057 50.0227 6.72443C49.5824 6.29356 48.9479 6.07812 48.1193 6.07812C47.3333 6.07812 46.6918 6.25095 46.1946 6.59659C45.7022 6.94223 45.3565 7.34943 45.1577 7.81818L43.9574 7.38494C44.2036 6.78835 44.5445 6.3125 44.9801 5.95739C45.4157 5.59754 45.9034 5.33949 46.4432 5.18324C46.983 5.02225 47.5298 4.94176 48.0838 4.94176C48.5005 4.94176 48.9337 4.99621 49.3835 5.10511C49.8381 5.21401 50.2595 5.40341 50.6477 5.6733C51.036 5.93845 51.3509 6.31013 51.5923 6.78835C51.8338 7.26184 51.9545 7.86316 51.9545 8.59233V16H50.6903V14.2741H50.6122C50.4607 14.5961 50.2358 14.9086 49.9375 15.2116C49.6392 15.5147 49.2652 15.7633 48.8153 15.9574C48.3655 16.1515 47.8376 16.2486 47.2315 16.2486ZM47.402 15.0909C48.0743 15.0909 48.6567 14.9418 49.1491 14.6435C49.6416 14.3452 50.0204 13.9498 50.2855 13.4574C50.5554 12.9602 50.6903 12.4134 50.6903 11.8168V10.2401C50.5956 10.33 50.437 10.4105 50.2145 10.4815C49.9967 10.5526 49.7434 10.6165 49.4545 10.6733C49.1705 10.7254 48.8864 10.7704 48.6023 10.8082C48.3182 10.8461 48.0625 10.8793 47.8352 10.9077C47.2197 10.9834 46.6941 11.1018 46.2585 11.2628C45.8229 11.4238 45.4891 11.6463 45.2571 11.9304C45.0251 12.2098 44.9091 12.5696 44.9091 13.0099C44.9091 13.6728 45.1458 14.1866 45.6193 14.5511C46.0928 14.911 46.687 15.0909 47.402 15.0909ZM56.5817 1.45455V16H55.3175V1.45455H56.5817ZM65.8146 16V1.45455H67.1428V14.8068H74.0746V16H65.8146ZM81.2124 16.2273C80.1944 16.2273 79.3137 15.9905 78.5703 15.517C77.8269 15.0388 77.2517 14.3783 76.8445 13.5355C76.442 12.688 76.2408 11.7126 76.2408 10.6094C76.2408 9.51089 76.442 8.53551 76.8445 7.68324C77.2517 6.82623 77.8127 6.15625 78.5277 5.6733C79.2474 5.18561 80.0784 4.94176 81.0206 4.94176C81.6125 4.94176 82.183 5.05066 82.7322 5.26847C83.2815 5.48153 83.7739 5.81061 84.2095 6.25568C84.6499 6.69602 84.9979 7.25237 85.2536 7.92472C85.5092 8.59233 85.6371 9.38305 85.6371 10.2969V10.9219H77.1143V9.80682H84.3445C84.3445 9.10606 84.2024 8.47633 83.9183 7.91761C83.639 7.35417 83.2483 6.90909 82.7464 6.58239C82.2493 6.25568 81.674 6.09233 81.0206 6.09233C80.3293 6.09233 79.7209 6.27699 79.1953 6.64631C78.6697 7.01562 78.2578 7.50331 77.9595 8.10938C77.666 8.71544 77.5168 9.37831 77.5121 10.098V10.7656C77.5121 11.6321 77.6612 12.3897 77.9595 13.0384C78.2625 13.6823 78.6911 14.1818 79.245 14.5369C79.799 14.892 80.4548 15.0696 81.2124 15.0696C81.7285 15.0696 82.1806 14.9891 82.5689 14.8281C82.9619 14.6671 83.291 14.4517 83.5561 14.1818C83.826 13.9072 84.0296 13.6065 84.1669 13.2798L85.3672 13.6705C85.2015 14.1297 84.9292 14.5535 84.5504 14.9418C84.1764 15.33 83.7076 15.6425 83.1442 15.8793C82.5855 16.1113 81.9415 16.2273 81.2124 16.2273ZM91.4698 16.2486C90.8117 16.2486 90.2103 16.1207 89.6658 15.8651C89.1213 15.6046 88.6881 15.2306 88.3661 14.7429C88.0442 14.2505 87.8832 13.6539 87.8832 12.9531C87.8832 12.4134 87.985 11.9588 88.1886 11.5895C88.3922 11.2202 88.681 10.9171 89.055 10.6804C89.4291 10.4437 89.8718 10.2566 90.3832 10.1193C90.8945 9.98201 91.458 9.87547 92.0735 9.79972C92.6843 9.72396 93.2004 9.65767 93.6218 9.60085C94.0479 9.54403 94.3723 9.45407 94.5948 9.33097C94.8174 9.20786 94.9286 9.009 94.9286 8.73438V8.47869C94.9286 7.73532 94.7061 7.15057 94.261 6.72443C93.8207 6.29356 93.1862 6.07812 92.3576 6.07812C91.5716 6.07812 90.93 6.25095 90.4329 6.59659C89.9405 6.94223 89.5948 7.34943 89.396 7.81818L88.1957 7.38494C88.4419 6.78835 88.7828 6.3125 89.2184 5.95739C89.654 5.59754 90.1417 5.33949 90.6815 5.18324C91.2212 5.02225 91.7681 4.94176 92.3221 4.94176C92.7388 4.94176 93.172 4.99621 93.6218 5.10511C94.0763 5.21401 94.4978 5.40341 94.886 5.6733C95.2743 5.93845 95.5891 6.31013 95.8306 6.78835C96.0721 7.26184 96.1928 7.86316 96.1928 8.59233V16H94.9286V14.2741H94.8505C94.699 14.5961 94.4741 14.9086 94.1758 15.2116C93.8775 15.5147 93.5034 15.7633 93.0536 15.9574C92.6038 16.1515 92.0759 16.2486 91.4698 16.2486ZM91.6403 15.0909C92.3126 15.0909 92.895 14.9418 93.3874 14.6435C93.8799 14.3452 94.2586 13.9498 94.5238 13.4574C94.7937 12.9602 94.9286 12.4134 94.9286 11.8168V10.2401C94.8339 10.33 94.6753 10.4105 94.4528 10.4815C94.235 10.5526 93.9817 10.6165 93.6928 10.6733C93.4087 10.7254 93.1246 10.7704 92.8406 10.8082C92.5565 10.8461 92.3008 10.8793 92.0735 10.9077C91.458 10.9834 90.9324 11.1018 90.4968 11.2628C90.0612 11.4238 89.7274 11.6463 89.4954 11.9304C89.2634 12.2098 89.1474 12.5696 89.1474 13.0099C89.1474 13.6728 89.3841 14.1866 89.8576 14.5511C90.3311 14.911 90.9253 15.0909 91.6403 15.0909ZM103.483 16.2273C102.588 16.2273 101.805 15.9905 101.132 15.517C100.46 15.0436 99.9345 14.383 99.5558 13.5355C99.1817 12.688 98.9947 11.7008 98.9947 10.5739C98.9947 9.4517 99.1817 8.46922 99.5558 7.62642C99.9345 6.77888 100.462 6.12074 101.14 5.65199C101.817 5.1785 102.605 4.94176 103.505 4.94176C104.167 4.94176 104.719 5.06013 105.159 5.29688C105.6 5.52888 105.953 5.81771 106.218 6.16335C106.483 6.509 106.689 6.84517 106.836 7.17188H106.949V1.45455H108.221V16H106.985V13.9759H106.836C106.689 14.3073 106.48 14.6482 106.211 14.9986C105.941 15.3442 105.583 15.6354 105.138 15.8722C104.698 16.1089 104.146 16.2273 103.483 16.2273ZM103.632 15.0696C104.338 15.0696 104.939 14.8778 105.436 14.4943C105.934 14.1061 106.312 13.5734 106.573 12.8963C106.838 12.2145 106.971 11.4332 106.971 10.5526C106.971 9.68134 106.84 8.91193 106.58 8.24432C106.319 7.57197 105.941 7.0464 105.444 6.66761C104.946 6.28409 104.343 6.09233 103.632 6.09233C102.903 6.09233 102.288 6.29119 101.786 6.68892C101.289 7.08191 100.91 7.61458 100.65 8.28693C100.394 8.95928 100.266 9.71449 100.266 10.5526C100.266 11.4001 100.396 12.1648 100.657 12.8466C100.917 13.5284 101.296 14.0705 101.793 14.473C102.295 14.8707 102.908 15.0696 103.632 15.0696ZM116.232 16.2273C115.214 16.2273 114.333 15.9905 113.59 15.517C112.846 15.0388 112.271 14.3783 111.864 13.5355C111.462 12.688 111.26 11.7126 111.26 10.6094C111.26 9.51089 111.462 8.53551 111.864 7.68324C112.271 6.82623 112.832 6.15625 113.547 5.6733C114.267 5.18561 115.098 4.94176 116.04 4.94176C116.632 4.94176 117.203 5.05066 117.752 5.26847C118.301 5.48153 118.793 5.81061 119.229 6.25568C119.669 6.69602 120.017 7.25237 120.273 7.92472C120.529 8.59233 120.657 9.38305 120.657 10.2969V10.9219H112.134V9.80682H119.364C119.364 9.10606 119.222 8.47633 118.938 7.91761C118.658 7.35417 118.268 6.90909 117.766 6.58239C117.269 6.25568 116.694 6.09233 116.04 6.09233C115.349 6.09233 114.74 6.27699 114.215 6.64631C113.689 7.01562 113.277 7.50331 112.979 8.10938C112.685 8.71544 112.536 9.37831 112.532 10.098V10.7656C112.532 11.6321 112.681 12.3897 112.979 13.0384C113.282 13.6823 113.711 14.1818 114.265 14.5369C114.819 14.892 115.474 15.0696 116.232 15.0696C116.748 15.0696 117.2 14.9891 117.588 14.8281C117.981 14.6671 118.31 14.4517 118.576 14.1818C118.846 13.9072 119.049 13.6065 119.186 13.2798L120.387 13.6705C120.221 14.1297 119.949 14.5535 119.57 14.9418C119.196 15.33 118.727 15.6425 118.164 15.8793C117.605 16.1113 116.961 16.2273 116.232 16.2273ZM123.442 16V5.09091H124.671V6.76705H124.763C124.981 6.2178 125.36 5.77509 125.9 5.43892C126.444 5.09801 127.06 4.92756 127.746 4.92756C127.851 4.92756 127.967 4.92992 128.094 4.93466C128.222 4.93939 128.329 4.94413 128.414 4.94886V6.23438C128.357 6.22491 128.258 6.2107 128.116 6.19176C127.974 6.17282 127.82 6.16335 127.654 6.16335C127.086 6.16335 126.579 6.28409 126.134 6.52557C125.694 6.76231 125.346 7.09138 125.09 7.51278C124.835 7.93419 124.707 8.41477 124.707 8.95455V16H123.442ZM144.357 5.09091C144.276 4.28125 143.919 3.63731 143.284 3.15909C142.65 2.68087 141.852 2.44176 140.891 2.44176C140.214 2.44176 139.617 2.55777 139.101 2.78977C138.59 3.02178 138.187 3.34375 137.894 3.75568C137.605 4.16288 137.461 4.62689 137.461 5.14773C137.461 5.53125 137.543 5.86742 137.709 6.15625C137.875 6.44508 138.097 6.69365 138.377 6.90199C138.661 7.10559 138.973 7.28078 139.314 7.42756C139.66 7.57434 140.008 7.69744 140.358 7.79688L141.892 8.23722C142.356 8.36506 142.82 8.52841 143.284 8.72727C143.748 8.92614 144.172 9.17708 144.556 9.48011C144.944 9.77841 145.254 10.1454 145.486 10.581C145.723 11.0118 145.841 11.5303 145.841 12.1364C145.841 12.9129 145.64 13.6113 145.238 14.2315C144.835 14.8518 144.257 15.3442 143.505 15.7088C142.752 16.0687 141.85 16.2486 140.799 16.2486C139.809 16.2486 138.95 16.0852 138.221 15.7585C137.491 15.4271 136.918 14.9702 136.502 14.3878C136.085 13.8054 135.851 13.1307 135.799 12.3636H137.162C137.21 12.9366 137.399 13.4219 137.73 13.8196C138.062 14.2173 138.493 14.5204 139.023 14.7287C139.553 14.9323 140.145 15.0341 140.799 15.0341C141.523 15.0341 142.167 14.9134 142.73 14.6719C143.299 14.4257 143.744 14.0848 144.066 13.6491C144.392 13.2088 144.556 12.6974 144.556 12.1151C144.556 11.6226 144.428 11.2107 144.172 10.8793C143.917 10.5431 143.559 10.2614 143.1 10.0341C142.645 9.80682 142.117 9.60559 141.516 9.4304L139.776 8.91903C138.635 8.57812 137.749 8.10701 137.12 7.50568C136.49 6.90436 136.175 6.13731 136.175 5.20455C136.175 4.4233 136.383 3.73674 136.8 3.14489C137.221 2.5483 137.79 2.08428 138.505 1.75284C139.224 1.41667 140.032 1.24858 140.926 1.24858C141.831 1.24858 142.631 1.4143 143.327 1.74574C144.023 2.07718 144.575 2.53409 144.982 3.11648C145.394 3.69413 145.614 4.35227 145.642 5.09091H144.357ZM148.775 20.0909V5.09091H150.003V7.17188H150.152C150.304 6.84517 150.512 6.51136 150.777 6.17045C151.042 5.82481 151.393 5.53362 151.828 5.29688C152.269 5.06013 152.823 4.94176 153.49 4.94176C154.39 4.94176 155.176 5.1785 155.848 5.65199C156.525 6.12074 157.051 6.77888 157.425 7.62642C157.804 8.46922 157.993 9.4517 157.993 10.5739C157.993 11.7008 157.804 12.688 157.425 13.5355C157.051 14.383 156.525 15.0436 155.848 15.517C155.176 15.9905 154.395 16.2273 153.505 16.2273C152.846 16.2273 152.295 16.1089 151.85 15.8722C151.409 15.6354 151.052 15.3442 150.777 14.9986C150.507 14.6482 150.299 14.3073 150.152 13.9759H150.039V20.0909H148.775ZM150.025 10.5526C150.025 11.4332 150.155 12.2145 150.415 12.8963C150.68 13.5734 151.059 14.1061 151.551 14.4943C152.049 14.8778 152.65 15.0696 153.355 15.0696C154.08 15.0696 154.691 14.8707 155.188 14.473C155.69 14.0705 156.071 13.5284 156.331 12.8466C156.596 12.1648 156.729 11.4001 156.729 10.5526C156.729 9.71449 156.599 8.95928 156.338 8.28693C156.083 7.61458 155.704 7.08191 155.202 6.68892C154.7 6.29119 154.085 6.09233 153.355 6.09233C152.645 6.09233 152.042 6.28409 151.544 6.66761C151.047 7.0464 150.668 7.57197 150.408 8.24432C150.152 8.91193 150.025 9.68134 150.025 10.5526ZM165.177 16.2273C164.159 16.2273 163.279 15.9905 162.535 15.517C161.792 15.0388 161.217 14.3783 160.809 13.5355C160.407 12.688 160.206 11.7126 160.206 10.6094C160.206 9.51089 160.407 8.53551 160.809 7.68324C161.217 6.82623 161.778 6.15625 162.493 5.6733C163.212 5.18561 164.043 4.94176 164.985 4.94176C165.577 4.94176 166.148 5.05066 166.697 5.26847C167.246 5.48153 167.739 5.81061 168.174 6.25568C168.615 6.69602 168.963 7.25237 169.218 7.92472C169.474 8.59233 169.602 9.38305 169.602 10.2969V10.9219H161.079V9.80682H168.309C168.309 9.10606 168.167 8.47633 167.883 7.91761C167.604 7.35417 167.213 6.90909 166.711 6.58239C166.214 6.25568 165.639 6.09233 164.985 6.09233C164.294 6.09233 163.686 6.27699 163.16 6.64631C162.635 7.01562 162.223 7.50331 161.924 8.10938C161.631 8.71544 161.482 9.37831 161.477 10.098V10.7656C161.477 11.6321 161.626 12.3897 161.924 13.0384C162.227 13.6823 162.656 14.1818 163.21 14.5369C163.764 14.892 164.42 15.0696 165.177 15.0696C165.693 15.0696 166.145 14.9891 166.534 14.8281C166.927 14.6671 167.256 14.4517 167.521 14.1818C167.791 13.9072 167.994 13.6065 168.132 13.2798L169.332 13.6705C169.166 14.1297 168.894 14.5535 168.515 14.9418C168.141 15.33 167.672 15.6425 167.109 15.8793C166.55 16.1113 165.906 16.2273 165.177 16.2273ZM175.435 16.2486C174.777 16.2486 174.175 16.1207 173.631 15.8651C173.086 15.6046 172.653 15.2306 172.331 14.7429C172.009 14.2505 171.848 13.6539 171.848 12.9531C171.848 12.4134 171.95 11.9588 172.153 11.5895C172.357 11.2202 172.646 10.9171 173.02 10.6804C173.394 10.4437 173.837 10.2566 174.348 10.1193C174.859 9.98201 175.423 9.87547 176.038 9.79972C176.649 9.72396 177.165 9.65767 177.587 9.60085C178.013 9.54403 178.337 9.45407 178.56 9.33097C178.782 9.20786 178.893 9.009 178.893 8.73438V8.47869C178.893 7.73532 178.671 7.15057 178.226 6.72443C177.786 6.29356 177.151 6.07812 176.322 6.07812C175.536 6.07812 174.895 6.25095 174.398 6.59659C173.905 6.94223 173.56 7.34943 173.361 7.81818L172.161 7.38494C172.407 6.78835 172.748 6.3125 173.183 5.95739C173.619 5.59754 174.107 5.33949 174.646 5.18324C175.186 5.02225 175.733 4.94176 176.287 4.94176C176.704 4.94176 177.137 4.99621 177.587 5.10511C178.041 5.21401 178.463 5.40341 178.851 5.6733C179.239 5.93845 179.554 6.31013 179.795 6.78835C180.037 7.26184 180.158 7.86316 180.158 8.59233V16H178.893V14.2741H178.815C178.664 14.5961 178.439 14.9086 178.141 15.2116C177.842 15.5147 177.468 15.7633 177.018 15.9574C176.569 16.1515 176.041 16.2486 175.435 16.2486ZM175.605 15.0909C176.277 15.0909 176.86 14.9418 177.352 14.6435C177.845 14.3452 178.223 13.9498 178.489 13.4574C178.759 12.9602 178.893 12.4134 178.893 11.8168V10.2401C178.799 10.33 178.64 10.4105 178.418 10.4815C178.2 10.5526 177.946 10.6165 177.658 10.6733C177.374 10.7254 177.089 10.7704 176.805 10.8082C176.521 10.8461 176.266 10.8793 176.038 10.9077C175.423 10.9834 174.897 11.1018 174.462 11.2628C174.026 11.4238 173.692 11.6463 173.46 11.9304C173.228 12.2098 173.112 12.5696 173.112 13.0099C173.112 13.6728 173.349 14.1866 173.822 14.5511C174.296 14.911 174.89 15.0909 175.605 15.0909ZM184.671 11.8807L184.657 10.2259H184.941L190.055 5.09091H191.653L186.603 10.1477L186.489 10.169L184.671 11.8807ZM183.521 16V1.45455H184.785V16H183.521ZM190.317 16L185.886 10.3963L186.795 9.52273L191.937 16H190.317ZM194.043 16V5.09091H195.314V16H194.043ZM194.689 3.21591C194.429 3.21591 194.206 3.12831 194.021 2.95312C193.837 2.7732 193.744 2.55777 193.744 2.30682C193.744 2.05587 193.837 1.8428 194.021 1.66761C194.206 1.48769 194.429 1.39773 194.689 1.39773C194.949 1.39773 195.172 1.48769 195.357 1.66761C195.541 1.8428 195.634 2.05587 195.634 2.30682C195.634 2.55777 195.541 2.7732 195.357 2.95312C195.172 3.12831 194.949 3.21591 194.689 3.21591ZM199.922 9.18182V16H198.657V5.09091H199.886V6.80256H200C200.255 6.24384 200.653 5.7964 201.193 5.46023C201.737 5.11932 202.41 4.94886 203.21 4.94886C203.944 4.94886 204.588 5.10275 205.142 5.41051C205.7 5.71354 206.134 6.16098 206.441 6.75284C206.754 7.3447 206.91 8.0715 206.91 8.93324V16H205.646V9.01136C205.646 8.11648 205.395 7.40862 204.893 6.88778C204.396 6.36695 203.728 6.10653 202.89 6.10653C202.317 6.10653 201.808 6.22964 201.363 6.47585C200.918 6.72206 200.565 7.07718 200.305 7.54119C200.049 8.00047 199.922 8.54735 199.922 9.18182ZM214.401 20.3182C213.658 20.3182 213.007 20.2211 212.448 20.027C211.889 19.8376 211.418 19.5772 211.035 19.2457C210.651 18.9143 210.353 18.5426 210.14 18.1307L211.177 17.4489C211.333 17.7235 211.541 17.9934 211.802 18.2585C212.067 18.5237 212.41 18.7438 212.832 18.919C213.258 19.0942 213.781 19.1818 214.401 19.1818C215.367 19.1818 216.146 18.9403 216.738 18.4574C217.335 17.9744 217.633 17.224 217.633 16.206V13.7486H217.519C217.372 14.08 217.162 14.4115 216.887 14.7429C216.612 15.0696 216.253 15.3419 215.808 15.5597C215.367 15.7775 214.82 15.8864 214.167 15.8864C213.296 15.8864 212.522 15.6709 211.844 15.2401C211.172 14.8092 210.642 14.1937 210.254 13.3935C209.87 12.5885 209.678 11.6297 209.678 10.517C209.678 9.41383 209.865 8.44318 210.239 7.60511C210.618 6.76705 211.146 6.11364 211.823 5.64489C212.5 5.17614 213.289 4.94176 214.188 4.94176C214.856 4.94176 215.41 5.06013 215.85 5.29688C216.29 5.52888 216.643 5.81771 216.908 6.16335C217.178 6.509 217.389 6.84517 217.54 7.17188H217.668V5.09091H218.904V16.2841C218.904 17.2074 218.708 17.9673 218.315 18.5639C217.922 19.1605 217.387 19.6009 216.71 19.8849C216.032 20.1738 215.263 20.3182 214.401 20.3182ZM214.316 14.7287C215.017 14.7287 215.616 14.5606 216.113 14.2244C216.61 13.8835 216.991 13.3958 217.256 12.7614C217.522 12.1269 217.654 11.3717 217.654 10.4957C217.654 9.64347 217.524 8.88826 217.263 8.23011C217.003 7.56723 216.624 7.0464 216.127 6.66761C215.635 6.28409 215.031 6.09233 214.316 6.09233C213.587 6.09233 212.971 6.28883 212.469 6.68182C211.968 7.07481 211.589 7.60511 211.333 8.27273C211.077 8.93561 210.95 9.67661 210.95 10.4957C210.95 11.3291 211.08 12.0653 211.34 12.7045C211.601 13.339 211.982 13.8362 212.484 14.196C212.986 14.5511 213.596 14.7287 214.316 14.7287ZM232.116 16.2273C231.174 16.2273 230.341 15.9882 229.616 15.5099C228.896 15.0317 228.333 14.3712 227.926 13.5284C227.519 12.6809 227.315 11.7031 227.315 10.5952C227.315 9.47775 227.519 8.49526 227.926 7.64773C228.333 6.79545 228.896 6.13258 229.616 5.65909C230.341 5.18087 231.174 4.94176 232.116 4.94176C233.058 4.94176 233.889 5.18087 234.609 5.65909C235.329 6.13731 235.892 6.80019 236.299 7.64773C236.711 8.49526 236.917 9.47775 236.917 10.5952C236.917 11.7031 236.714 12.6809 236.306 13.5284C235.899 14.3712 235.333 15.0317 234.609 15.5099C233.889 15.9882 233.058 16.2273 232.116 16.2273ZM232.116 15.0696C232.874 15.0696 233.515 14.866 234.041 14.4588C234.566 14.0516 234.964 13.5095 235.234 12.8324C235.509 12.1553 235.646 11.4096 235.646 10.5952C235.646 9.78078 235.509 9.03267 235.234 8.35085C234.964 7.66903 234.566 7.12216 234.041 6.71023C233.515 6.2983 232.874 6.09233 232.116 6.09233C231.363 6.09233 230.722 6.2983 230.191 6.71023C229.666 7.12216 229.266 7.66903 228.991 8.35085C228.721 9.03267 228.586 9.78078 228.586 10.5952C228.586 11.4096 228.721 12.1553 228.991 12.8324C229.266 13.5095 229.666 14.0516 230.191 14.4588C230.717 14.866 231.359 15.0696 232.116 15.0696ZM240.957 9.18182V16H239.692V5.09091H240.921V6.80256H241.035C241.29 6.24384 241.688 5.7964 242.228 5.46023C242.772 5.11932 243.445 4.94886 244.245 4.94886C244.979 4.94886 245.623 5.10275 246.177 5.41051C246.736 5.71354 247.169 6.16098 247.477 6.75284C247.789 7.3447 247.945 8.0715 247.945 8.93324V16H246.681V9.01136C246.681 8.11648 246.43 7.40862 245.928 6.88778C245.431 6.36695 244.763 6.10653 243.925 6.10653C243.353 6.10653 242.844 6.22964 242.398 6.47585C241.953 6.72206 241.601 7.07718 241.34 7.54119C241.085 8.00047 240.957 8.54735 240.957 9.18182ZM257.162 16V1.45455H265.578V2.64773H258.49V8.12358H264.918V9.31676H258.49V16H257.162ZM274.866 11.831V5.09091H276.131V16H274.866V14.1889H274.767C274.511 14.7476 274.107 15.214 273.553 15.5881C272.999 15.9574 272.321 16.142 271.521 16.142C270.825 16.142 270.207 15.9905 269.668 15.6875C269.128 15.3797 268.704 14.9299 268.396 14.3381C268.089 13.7462 267.935 13.0194 267.935 12.1577V5.09091H269.199V12.0795C269.199 12.9318 269.45 13.6184 269.952 14.1392C270.454 14.6553 271.098 14.9134 271.884 14.9134C272.376 14.9134 272.849 14.795 273.304 14.5582C273.759 14.3215 274.133 13.9759 274.426 13.5213C274.72 13.062 274.866 12.4986 274.866 11.831ZM283.775 5.09091V6.19176H278.569V5.09091H283.775ZM280.195 2.47727H281.466V13.152C281.466 13.6065 281.544 13.964 281.701 14.2244C281.857 14.4801 282.06 14.6624 282.311 14.7713C282.562 14.8755 282.83 14.9276 283.114 14.9276C283.28 14.9276 283.422 14.9181 283.54 14.8991C283.658 14.8755 283.763 14.8518 283.853 14.8281L284.123 15.9716C283.999 16.0189 283.848 16.0616 283.668 16.0994C283.488 16.142 283.266 16.1634 283 16.1634C282.536 16.1634 282.089 16.0616 281.658 15.858C281.232 15.6544 280.882 15.3513 280.607 14.9489C280.332 14.5464 280.195 14.0469 280.195 13.4503V2.47727ZM293.577 11.831V5.09091H294.842V16H293.577V14.1889H293.478C293.222 14.7476 292.817 15.214 292.263 15.5881C291.71 15.9574 291.032 16.142 290.232 16.142C289.536 16.142 288.918 15.9905 288.379 15.6875C287.839 15.3797 287.415 14.9299 287.107 14.3381C286.799 13.7462 286.646 13.0194 286.646 12.1577V5.09091H287.91V12.0795C287.91 12.9318 288.161 13.6184 288.663 14.1392C289.165 14.6553 289.808 14.9134 290.594 14.9134C291.087 14.9134 291.56 14.795 292.015 14.5582C292.469 14.3215 292.844 13.9759 293.137 13.5213C293.431 13.062 293.577 12.4986 293.577 11.831ZM298.189 16V5.09091H299.417V6.76705H299.51C299.727 6.2178 300.106 5.77509 300.646 5.43892C301.19 5.09801 301.806 4.92756 302.493 4.92756C302.597 4.92756 302.713 4.92992 302.841 4.93466C302.968 4.93939 303.075 4.94413 303.16 4.94886V6.23438C303.103 6.22491 303.004 6.2107 302.862 6.19176C302.72 6.17282 302.566 6.16335 302.4 6.16335C301.832 6.16335 301.325 6.28409 300.88 6.52557C300.44 6.76231 300.092 7.09138 299.836 7.51278C299.581 7.93419 299.453 8.41477 299.453 8.95455V16H298.189ZM309.396 16.2273C308.378 16.2273 307.497 15.9905 306.754 15.517C306.011 15.0388 305.435 14.3783 305.028 13.5355C304.626 12.688 304.424 11.7126 304.424 10.6094C304.424 9.51089 304.626 8.53551 305.028 7.68324C305.435 6.82623 305.996 6.15625 306.711 5.6733C307.431 5.18561 308.262 4.94176 309.204 4.94176C309.796 4.94176 310.367 5.05066 310.916 5.26847C311.465 5.48153 311.958 5.81061 312.393 6.25568C312.833 6.69602 313.181 7.25237 313.437 7.92472C313.693 8.59233 313.821 9.38305 313.821 10.2969V10.9219H305.298V9.80682H312.528C312.528 9.10606 312.386 8.47633 312.102 7.91761C311.823 7.35417 311.432 6.90909 310.93 6.58239C310.433 6.25568 309.858 6.09233 309.204 6.09233C308.513 6.09233 307.904 6.27699 307.379 6.64631C306.853 7.01562 306.441 7.50331 306.143 8.10938C305.85 8.71544 305.7 9.37831 305.696 10.098V10.7656C305.696 11.6321 305.845 12.3897 306.143 13.0384C306.446 13.6823 306.875 14.1818 307.429 14.5369C307.983 14.892 308.638 15.0696 309.396 15.0696C309.912 15.0696 310.364 14.9891 310.752 14.8281C311.145 14.6671 311.475 14.4517 311.74 14.1818C312.01 13.9072 312.213 13.6065 312.35 13.2798L313.551 13.6705C313.385 14.1297 313.113 14.5535 312.734 14.9418C312.36 15.33 311.891 15.6425 311.328 15.8793C310.769 16.1113 310.125 16.2273 309.396 16.2273ZM326.472 16.2273C325.529 16.2273 324.696 15.9882 323.972 15.5099C323.252 15.0317 322.688 14.3712 322.281 13.5284C321.874 12.6809 321.67 11.7031 321.67 10.5952C321.67 9.47775 321.874 8.49526 322.281 7.64773C322.688 6.79545 323.252 6.13258 323.972 5.65909C324.696 5.18087 325.529 4.94176 326.472 4.94176C327.414 4.94176 328.245 5.18087 328.964 5.65909C329.684 6.13731 330.248 6.80019 330.655 7.64773C331.067 8.49526 331.273 9.47775 331.273 10.5952C331.273 11.7031 331.069 12.6809 330.662 13.5284C330.255 14.3712 329.689 15.0317 328.964 15.5099C328.245 15.9882 327.414 16.2273 326.472 16.2273ZM326.472 15.0696C327.229 15.0696 327.871 14.866 328.396 14.4588C328.922 14.0516 329.32 13.5095 329.589 12.8324C329.864 12.1553 330.001 11.4096 330.001 10.5952C330.001 9.78078 329.864 9.03267 329.589 8.35085C329.32 7.66903 328.922 7.12216 328.396 6.71023C327.871 6.2983 327.229 6.09233 326.472 6.09233C325.719 6.09233 325.077 6.2983 324.547 6.71023C324.021 7.12216 323.621 7.66903 323.347 8.35085C323.077 9.03267 322.942 9.78078 322.942 10.5952C322.942 11.4096 323.077 12.1553 323.347 12.8324C323.621 13.5095 324.021 14.0516 324.547 14.4588C325.072 14.866 325.714 15.0696 326.472 15.0696ZM338.537 5.09091V6.19176H333.174V5.09091H338.537ZM334.85 16V3.4929C334.85 2.90578 334.985 2.41098 335.255 2.00852C335.53 1.60606 335.887 1.30066 336.328 1.09233C336.768 0.883995 337.234 0.779829 337.727 0.779829C338.058 0.779829 338.333 0.808238 338.551 0.865056C338.773 0.91714 338.949 0.969223 339.076 1.02131L338.707 2.12926C338.612 2.10085 338.496 2.06771 338.359 2.02983C338.222 1.99195 338.049 1.97301 337.841 1.97301C337.291 1.97301 336.868 2.12689 336.569 2.43466C336.271 2.74242 336.122 3.18276 336.122 3.75568L336.115 16H334.85ZM346.067 2.64773V1.45455H356.614V2.64773H352.004V16H350.676V2.64773H346.067ZM362.169 16.2273C361.151 16.2273 360.271 15.9905 359.527 15.517C358.784 15.0388 358.209 14.3783 357.801 13.5355C357.399 12.688 357.198 11.7126 357.198 10.6094C357.198 9.51089 357.399 8.53551 357.801 7.68324C358.209 6.82623 358.77 6.15625 359.485 5.6733C360.204 5.18561 361.035 4.94176 361.978 4.94176C362.569 4.94176 363.14 5.05066 363.689 5.26847C364.239 5.48153 364.731 5.81061 365.167 6.25568C365.607 6.69602 365.955 7.25237 366.211 7.92472C366.466 8.59233 366.594 9.38305 366.594 10.2969V10.9219H358.071V9.80682H365.301C365.301 9.10606 365.159 8.47633 364.875 7.91761C364.596 7.35417 364.205 6.90909 363.703 6.58239C363.206 6.25568 362.631 6.09233 361.978 6.09233C361.286 6.09233 360.678 6.27699 360.152 6.64631C359.627 7.01562 359.215 7.50331 358.917 8.10938C358.623 8.71544 358.474 9.37831 358.469 10.098V10.7656C358.469 11.6321 358.618 12.3897 358.917 13.0384C359.22 13.6823 359.648 14.1818 360.202 14.5369C360.756 14.892 361.412 15.0696 362.169 15.0696C362.685 15.0696 363.138 14.9891 363.526 14.8281C363.919 14.6671 364.248 14.4517 364.513 14.1818C364.783 13.9072 364.987 13.6065 365.124 13.2798L366.324 13.6705C366.158 14.1297 365.886 14.5535 365.507 14.9418C365.133 15.33 364.665 15.6425 364.101 15.8793C363.542 16.1113 362.899 16.2273 362.169 16.2273ZM373.641 16.2273C372.666 16.2273 371.816 15.9834 371.092 15.4957C370.372 15.008 369.813 14.3404 369.415 13.4929C369.018 12.6454 368.819 11.6795 368.819 10.5952C368.819 9.50142 369.02 8.52841 369.423 7.67614C369.83 6.82386 370.393 6.15625 371.113 5.6733C371.833 5.18561 372.668 4.94176 373.62 4.94176C374.349 4.94176 375.01 5.08381 375.602 5.3679C376.193 5.64725 376.681 6.04261 377.065 6.55398C377.453 7.06061 377.697 7.65246 377.796 8.32955H376.518C376.385 7.71402 376.066 7.18845 375.559 6.75284C375.057 6.3125 374.418 6.09233 373.641 6.09233C372.945 6.09233 372.33 6.28172 371.795 6.66051C371.26 7.03456 370.841 7.55776 370.538 8.23011C370.239 8.89773 370.09 9.67187 370.09 10.5526C370.09 11.438 370.237 12.2216 370.531 12.9034C370.824 13.5805 371.236 14.1108 371.766 14.4943C372.301 14.8778 372.926 15.0696 373.641 15.0696C374.124 15.0696 374.565 14.9796 374.962 14.7997C375.365 14.6151 375.701 14.3546 375.971 14.0185C376.246 13.6823 376.43 13.2822 376.525 12.8182H377.803C377.709 13.4763 377.474 14.0634 377.1 14.5795C376.731 15.0909 376.25 15.4934 375.658 15.7869C375.071 16.0805 374.399 16.2273 373.641 16.2273ZM381.777 9.18182V16H380.513V1.45455H381.777V6.80256H381.891C382.146 6.23911 382.542 5.7893 383.077 5.45312C383.616 5.11695 384.298 4.94886 385.122 4.94886C385.861 4.94886 386.509 5.10038 387.068 5.40341C387.627 5.70644 388.062 6.15388 388.375 6.74574C388.688 7.33759 388.844 8.06676 388.844 8.93324V16H387.572V9.01136C387.572 8.11174 387.321 7.40388 386.82 6.88778C386.322 6.36695 385.65 6.10653 384.803 6.10653C384.22 6.10653 383.702 6.22964 383.247 6.47585C382.793 6.72206 382.433 7.07718 382.168 7.54119C381.907 8.00047 381.777 8.54735 381.777 9.18182Z" fill="black"/>
</svg>
