<svg width="390" height="75" viewBox="0 0 439 89" fill="none" xmlns="http://www.w3.org/2000/svg">
<path d="M12 0.5H427C433.351 0.5 438.5 5.64873 438.5 12V77C438.5 83.3513 433.351 88.5 427 88.5H12C5.64873 88.5 0.5 83.3513 0.5 77V12C0.5 5.64873 5.64873 0.5 12 0.5Z" stroke="black"/>
<path d="M31.1562 61V29H43.1563C45.6146 29 47.6771 29.4583 49.3438 30.375C51.0208 31.2917 52.2865 32.5521 53.1406 34.1562C54.0052 35.75 54.4375 37.5625 54.4375 39.5937C54.4375 41.6458 54.0052 43.4687 53.1406 45.0625C52.276 46.6562 51 47.9115 49.3125 48.8281C47.625 49.7344 45.5469 50.1875 43.0781 50.1875H35.125V45.4219H42.2969C43.7344 45.4219 44.9115 45.1719 45.8281 44.6719C46.7448 44.1719 47.4219 43.4844 47.8594 42.6094C48.3073 41.7344 48.5313 40.7292 48.5313 39.5937C48.5313 38.4583 48.3073 37.4583 47.8594 36.5938C47.4219 35.7292 46.7396 35.0573 45.8125 34.5781C44.8958 34.0885 43.7135 33.8438 42.2656 33.8438H36.9531V61H31.1562ZM253.531 33.8594V29H279.063V33.8594H269.172V61H263.422V33.8594H253.531Z" fill="#DC4A45"/>
<path d="M59.4727 61V29H71.4727C73.931 29 75.9935 29.4271 77.6602 30.2812C79.3372 31.1354 80.6029 32.3333 81.457 33.875C82.3216 35.4062 82.7539 37.1927 82.7539 39.2344C82.7539 41.2865 82.3164 43.0677 81.4414 44.5781C80.5768 46.0781 79.3008 47.2396 77.6133 48.0625C75.9258 48.875 73.8529 49.2812 71.3945 49.2812H62.8477V44.4687H70.6133C72.0508 44.4687 73.2279 44.2708 74.1445 43.875C75.0612 43.4687 75.7383 42.8802 76.1758 42.1094C76.6237 41.3281 76.8477 40.3698 76.8477 39.2344C76.8477 38.099 76.6237 37.1302 76.1758 36.3281C75.7279 35.5156 75.0456 34.901 74.1289 34.4844C73.2122 34.0573 72.0299 33.8438 70.582 33.8438H65.2695V61H59.4727ZM76.0039 46.5L83.9258 61H77.457L69.6758 46.5H76.0039ZM243.754 37.7969C243.608 36.4323 242.993 35.3698 241.91 34.6094C240.837 33.849 239.441 33.4687 237.723 33.4687C236.514 33.4687 235.478 33.651 234.613 34.0156C233.749 34.3802 233.087 34.875 232.629 35.5C232.171 36.125 231.936 36.8385 231.926 37.6406C231.926 38.3073 232.077 38.8854 232.379 39.375C232.691 39.8646 233.113 40.2812 233.645 40.625C234.176 40.9583 234.764 41.2396 235.41 41.4687C236.056 41.6979 236.707 41.8906 237.363 42.0469L240.363 42.7969C241.572 43.0781 242.733 43.4583 243.848 43.9375C244.973 44.4167 245.978 45.0208 246.863 45.75C247.759 46.4792 248.467 47.3594 248.988 48.3906C249.509 49.4219 249.77 50.6302 249.77 52.0156C249.77 53.8906 249.29 55.5417 248.332 56.9687C247.374 58.3854 245.988 59.4948 244.176 60.2969C242.374 61.0885 240.191 61.4844 237.629 61.4844C235.139 61.4844 232.978 61.099 231.145 60.3281C229.322 59.5573 227.895 58.4323 226.863 56.9531C225.842 55.474 225.29 53.6719 225.207 51.5469H230.91C230.993 52.6615 231.337 53.5885 231.941 54.3281C232.546 55.0677 233.332 55.6198 234.301 55.9844C235.28 56.349 236.374 56.5312 237.582 56.5312C238.842 56.5312 239.947 56.3437 240.895 55.9687C241.853 55.5833 242.603 55.0521 243.145 54.375C243.686 53.6875 243.962 52.8854 243.973 51.9687C243.962 51.1354 243.717 50.4479 243.238 49.9062C242.759 49.3542 242.087 48.8958 241.223 48.5312C240.368 48.1562 239.368 47.8229 238.223 47.5312L234.582 46.5937C231.947 45.9167 229.863 44.8906 228.332 43.5156C226.811 42.1302 226.051 40.2917 226.051 38C226.051 36.1146 226.561 34.4635 227.582 33.0469C228.613 31.6302 230.014 30.5312 231.785 29.75C233.556 28.9583 235.561 28.5625 237.801 28.5625C240.072 28.5625 242.061 28.9583 243.77 29.75C245.488 30.5312 246.837 31.6198 247.816 33.0156C248.796 34.401 249.301 35.9948 249.332 37.7969H243.754ZM283.984 61V29H304.797V33.8594H289.781V42.5469H303.719V47.4062H289.781V56.1406H304.922V61H283.984Z" fill="#44A9B1"/>
<path d="M88.0898 61V29H108.902V33.8594H93.8867V42.5469H107.824V47.4062H93.8867V56.1406H109.027V61H88.0898ZM202.512 39.2187C202.251 38.375 201.892 37.6198 201.434 36.9531C200.986 36.276 200.444 35.6979 199.809 35.2188C199.184 34.7396 198.465 34.3802 197.652 34.1406C196.84 33.8906 195.954 33.7656 194.996 33.7656C193.277 33.7656 191.746 34.1979 190.402 35.0625C189.059 35.9271 188.001 37.1979 187.23 38.875C186.47 40.5417 186.09 42.5729 186.09 44.9687C186.09 47.3854 186.47 49.4323 187.23 51.1094C187.991 52.7865 189.048 54.0625 190.402 54.9375C191.757 55.8021 193.329 56.2344 195.121 56.2344C196.746 56.2344 198.152 55.9219 199.34 55.2969C200.538 54.6719 201.46 53.7865 202.105 52.6406C202.751 51.4844 203.074 50.1302 203.074 48.5781L204.387 48.7812H195.699V44.25H208.684V48.0937C208.684 50.8333 208.1 53.2031 206.934 55.2031C205.767 57.2031 204.163 58.7448 202.121 59.8281C200.079 60.901 197.736 61.4375 195.09 61.4375C192.142 61.4375 189.553 60.776 187.324 59.4531C185.105 58.1198 183.371 56.2292 182.121 53.7812C180.882 51.3229 180.262 48.4062 180.262 45.0312C180.262 42.4479 180.626 40.1406 181.355 38.1094C182.095 36.0781 183.126 34.3542 184.449 32.9375C185.772 31.5104 187.324 30.4271 189.105 29.6875C190.887 28.9375 192.824 28.5625 194.918 28.5625C196.689 28.5625 198.34 28.8229 199.871 29.3437C201.402 29.8542 202.762 30.5833 203.949 31.5313C205.147 32.4792 206.132 33.6042 206.902 34.9062C207.673 36.2083 208.178 37.6458 208.418 39.2187H202.512Z" fill="#AC89A3"/>
<path d="M125.73 61V29H137.73C140.189 29 142.251 29.4271 143.918 30.2812C145.595 31.1354 146.861 32.3333 147.715 33.875C148.579 35.4062 149.012 37.1927 149.012 39.2344C149.012 41.2865 148.574 43.0677 147.699 44.5781C146.835 46.0781 145.559 47.2396 143.871 48.0625C142.184 48.875 140.111 49.2812 137.652 49.2812H129.105V44.4687H136.871C138.309 44.4687 139.486 44.2708 140.402 43.875C141.319 43.4687 141.996 42.8802 142.434 42.1094C142.882 41.3281 143.105 40.3698 143.105 39.2344C143.105 38.099 142.882 37.1302 142.434 36.3281C141.986 35.5156 141.303 34.901 140.387 34.4844C139.47 34.0573 138.288 33.8438 136.84 33.8438H131.527V61H125.73ZM142.262 46.5L150.184 61H143.715L135.934 46.5H142.262Z" fill="#8F979B"/>
<path d="M154.348 61V29H175.16V33.8594H160.145V42.5469H174.082V47.4062H160.145V56.1406H175.285V61H154.348Z" fill="#EA8E82"/>
<path d="M220.086 29V61H214.289V29H220.086Z" fill="#E9877A"/>
<path d="M310.711 61V29H322.711C325.169 29 327.232 29.4271 328.898 30.2812C330.576 31.1354 331.841 32.3333 332.695 33.875C333.56 35.4062 333.992 37.1927 333.992 39.2344C333.992 41.2865 333.555 43.0677 332.68 44.5781C331.815 46.0781 330.539 47.2396 328.852 48.0625C327.164 48.875 325.091 49.2812 322.633 49.2812H314.086V44.4687H321.852C323.289 44.4687 324.466 44.2708 325.383 43.875C326.299 43.4687 326.977 42.8802 327.414 42.1094C327.862 41.3281 328.086 40.3698 328.086 39.2344C328.086 38.099 327.862 37.1302 327.414 36.3281C326.966 35.5156 326.284 34.901 325.367 34.4844C324.451 34.0573 323.268 33.8438 321.82 33.8438H316.508V61H310.711ZM327.242 46.5L335.164 61H328.695L320.914 46.5H327.242Z" fill="#696868"/>
<circle cx="378" cy="45" r="2" fill="black"/>
<circle cx="367" cy="45" r="2" fill="black"/>
<path d="M385 44.9998H415M415 44.9998L402.5 35.9998M415 44.9998L402.5 52.9998" stroke="black" stroke-width="4"/>
<path d="M401.417 37.6853C401.083 37.425 400.883 37.0182 400.859 36.5489C400.835 36.0796 400.988 35.5836 401.288 35.1634C401.587 34.7431 402.01 34.4306 402.468 34.2904C402.926 34.1502 403.386 34.1929 403.751 34.4098L402.655 36.0958L401.417 37.6853Z" fill="black"/>
<path d="M403.838 54.5319C403.371 54.8026 402.822 54.8916 402.305 54.7805C401.788 54.6694 401.343 54.3667 401.06 53.9348C400.777 53.5029 400.68 52.9749 400.787 52.4596C400.894 51.9444 401.197 51.4812 401.635 51.1658L402.828 52.7897L403.838 54.5319Z" fill="black"/>
</svg>
